<?xml version="1.0" encoding="UTF-8" standalone="no"?>
<svg
   width="1792"
   height="1792"
   viewBox="0 0 1792 1792"
   version="1.1"
   id="svg1"
   sodipodi:docname="md.svg"
   inkscape:version="1.4 (86a8ad7, 2024-10-11)"
   xmlns:inkscape="http://www.inkscape.org/namespaces/inkscape"
   xmlns:sodipodi="http://sodipodi.sourceforge.net/DTD/sodipodi-0.dtd"
   xmlns="http://www.w3.org/2000/svg"
   xmlns:svg="http://www.w3.org/2000/svg">
  <defs
     id="defs1" />
  <sodipodi:namedview
     id="namedview1"
     pagecolor="#ffffff"
     bordercolor="#000000"
     borderopacity="0.25"
     inkscape:showpageshadow="2"
     inkscape:pageopacity="0.0"
     inkscape:pagecheckerboard="0"
     inkscape:deskcolor="#d1d1d1"
     inkscape:zoom="0.45033482"
     inkscape:cx="896"
     inkscape:cy="896"
     inkscape:window-width="1920"
     inkscape:window-height="1009"
     inkscape:window-x="-8"
     inkscape:window-y="-8"
     inkscape:window-maximized="1"
     inkscape:current-layer="svg1" />
  <path
     d="m 960,1472 q 0,-26 -19,-45 -19,-19 -45,-19 -26,0 -45,19 -19,19 -19,45 0,26 19,45 19,19 45,19 26,0 45,-19 19,-19 19,-45 z m 384,-160 V 352 q 0,-13 -9.5,-22.5 Q 1325,320 1312,320 H 480 q -13,0 -22.5,9.5 Q 448,339 448,352 v 960 q 0,13 9.5,22.5 9.5,9.5 22.5,9.5 h 832 q 13,0 22.5,-9.5 9.5,-9.5 9.5,-22.5 z m 128,-960 v 1088 q 0,66 -47,113 -47,47 -113,47 H 480 q -66,0 -113,-47 -47,-47 -47,-113 V 352 q 0,-66 47,-113 47,-47 113,-47 h 832 q 66,0 113,47 47,47 47,113 z"
     id="path1" />
</svg>
